<svg width="631" height="86" viewBox="0 0 631 86" fill="none" xmlns="http://www.w3.org/2000/svg">
<path d="M122.785 1.20821H119.051V18.3691H122.809L130.846 6.84608V18.3691H134.58V1.20821H130.796L122.785 12.657V1.20821Z" fill="black"/>
<path d="M152.496 1.20821V7.93408H144.608V1.20821H140.824V18.3691H144.608V11.3959H152.496V18.3691H156.254V1.20821H152.496Z" fill="black"/>
<path d="M171.255 9.44246L165.073 1.20821H160.869L166.804 9.14573L160.424 18.3691H164.875L171.255 9.44246ZM171.255 18.3691H175.013V1.20821H171.255V18.3691ZM175.013 9.41773L181.393 18.3691H185.844L179.464 9.14573L185.423 1.20821H181.195L175.013 9.41773Z" fill="black"/>
<path d="M190.022 18.3691H203.128V14.9072H193.806V11.3465H200.309V8.00827H193.806V4.67006H203.029V1.20821H190.022V18.3691Z" fill="black"/>
<path d="M220.063 1.20821V7.93408H212.175V1.20821H208.391V18.3691H212.175V11.3959H220.063V18.3691H223.821V1.20821H220.063Z" fill="black"/>
<path d="M230.093 18.3691H243.198V14.9072H233.876V11.3465H240.379V8.00827H233.876V4.67006H243.099V1.20821H230.093V18.3691Z" fill="black"/>
<path d="M255.064 9.14573H252.245V4.6206H255.064C256.597 4.6206 257.586 5.53552 257.586 6.84608C257.586 8.18136 256.597 9.14573 255.064 9.14573ZM248.461 18.3691H252.245V12.4345H255.212C258.723 12.4345 261.468 10.4563 261.468 6.84608C261.468 3.21114 258.773 1.20821 255.212 1.20821H248.461V18.3691Z" fill="black"/>
<path d="M277.97 1.20821V7.93408H270.082V1.20821H266.299V18.3691H270.082V11.3959H277.97V18.3691H281.729V1.20821H277.97Z" fill="black"/>
<path d="M285.997 18.3691H289.904L291.215 15.105H298.707L299.993 18.3691H304.024L296.927 1.20821H293.069L285.997 18.3691ZM292.55 11.7174L294.949 5.65916L297.347 11.7174H292.55Z" fill="black"/>
<path d="M306.545 18.3691H310.848L314.557 12.4592H317.227V18.3691H320.986V1.20821H313.988C310.378 1.20821 307.683 3.26059 307.683 6.82135C307.683 9.09627 308.993 10.8025 310.798 11.7174L306.545 18.3691ZM311.54 6.89553C311.54 5.56025 312.554 4.69479 314.211 4.69479H317.227V9.14573H314.235C312.628 9.14573 311.54 8.23081 311.54 6.89553Z" fill="black"/>
<path d="M335.114 18.3691H356.973V1.20821H353.214V14.8825H347.923V1.20821H344.164V14.8825H338.872V1.20821H335.114V18.3691Z" fill="black"/>
<path d="M367.022 18.3691V1.20821H363.238V18.3691H367.022ZM367.022 8.82427L374.044 18.3691H378.495L371.398 8.67591L377.407 1.20821H373.228L367.022 8.82427Z" fill="black"/>
<path d="M389.036 15.0309C386.093 15.0309 383.843 12.7807 383.843 9.78864C383.843 6.79662 386.093 4.54642 389.036 4.54642C391.954 4.54642 394.204 6.82135 394.204 9.78864C394.204 12.7559 391.954 15.0309 389.036 15.0309ZM379.961 9.78864C379.961 14.8578 383.818 18.6163 389.036 18.6163C394.229 18.6163 398.086 14.8578 398.086 9.78864C398.086 4.71951 394.229 0.960938 389.036 0.960938C383.818 0.960938 379.961 4.71951 379.961 9.78864Z" fill="black"/>
<path d="M402.01 18.4927C405.917 18.4927 407.475 16.1189 407.475 12.5581V4.67006H413.459V18.3691H417.217V1.20821H403.865V12.3108C403.865 14.3138 403.098 15.0309 401.59 15.0309H400.625V18.4927H402.01Z" fill="black"/>
<path d="M421.485 18.3691H425.392L426.703 15.105H434.195L435.481 18.3691H439.512L432.415 1.20821H428.557L421.485 18.3691ZM428.038 11.7174L430.437 5.65916L432.835 11.7174H428.038Z" fill="black"/>
<path d="M122.785 34.4196H119.051V51.5805H122.809L130.846 40.0575V51.5805H134.58V34.4196H130.796L122.785 45.8684V34.4196Z" fill="black"/>
<path d="M152.496 34.4196V41.1455H144.608V34.4196H140.824V51.5805H144.608V44.6073H152.496V51.5805H156.254V34.4196H152.496Z" fill="black"/>
<path d="M169.128 50.3688H169.623V52.3223H173.356V50.3688H173.826C177.758 50.3688 181.813 47.6488 181.813 42.8022C181.813 37.9556 177.758 35.2356 173.826 35.2356H173.356V33.2574H169.623V35.2356H169.128C165.221 35.2356 161.19 37.9556 161.19 42.8022C161.19 47.6488 165.221 50.3688 169.128 50.3688ZM164.974 42.8022C164.974 39.8349 167.348 38.5491 169.128 38.5491H169.623V47.0801H169.128C167.348 47.0801 164.974 45.7695 164.974 42.8022ZM173.356 47.0801V38.5491H173.826C175.607 38.5491 177.98 39.8349 177.98 42.8022C177.98 45.7695 175.607 47.0801 173.826 47.0801H173.356Z" fill="black"/>
<path d="M194.602 48.2423C191.659 48.2423 189.409 45.9921 189.409 43C189.409 40.008 191.659 37.7578 194.602 37.7578C197.52 37.7578 199.77 40.0328 199.77 43C199.77 45.9673 197.52 48.2423 194.602 48.2423ZM185.527 43C185.527 48.0692 189.384 51.8278 194.602 51.8278C199.794 51.8278 203.652 48.0692 203.652 43C203.652 37.9309 199.794 34.1723 194.602 34.1723C189.384 34.1723 185.527 37.9309 185.527 43Z" fill="black"/>
<path d="M215.332 42.3571H212.513V37.832H215.332C216.865 37.832 217.854 38.7469 217.854 40.0575C217.854 41.3928 216.865 42.3571 215.332 42.3571ZM208.729 51.5805H212.513V45.6459H215.48C218.991 45.6459 221.736 43.6677 221.736 40.0575C221.736 36.4225 219.041 34.4196 215.48 34.4196H208.729V51.5805Z" fill="black"/>
<path d="M226.567 51.5805H230.251V39.192L235.617 45.6459L240.958 39.1426V51.5805H244.618V34.4196H240.686L235.617 40.4284L230.548 34.4196H226.567V51.5805Z" fill="black"/>
<path d="M248.897 51.5805H252.804L254.115 48.3165H261.607L262.893 51.5805H266.924L259.827 34.4196H255.969L248.897 51.5805ZM255.45 44.9288L257.849 38.8706L260.247 44.9288H255.45Z" fill="black"/>
<path d="M288.411 48.0939H286.359V34.4196H282.6V48.0939H274.96V34.4196H271.201V51.5805H284.752V55.0176H288.411V48.0939Z" fill="black"/>
<path d="M296.926 34.4196H293.192V51.5805H296.951L304.987 40.0575V51.5805H308.721V34.4196H304.938L296.926 45.8684V34.4196Z" fill="black"/>
<path d="M322.829 48.2423C319.886 48.2423 317.636 45.9921 317.636 43C317.636 40.008 319.886 37.7578 322.829 37.7578C325.747 37.7578 327.997 40.0328 327.997 43C327.997 45.9673 325.747 48.2423 322.829 48.2423ZM313.754 43C313.754 48.0692 317.612 51.8278 322.829 51.8278C328.022 51.8278 331.879 48.0692 331.879 43C331.879 37.9309 328.022 34.1723 322.829 34.1723C317.612 34.1723 313.754 37.9309 313.754 43Z" fill="black"/>
<path d="M348.628 34.4196V41.1455H340.74V34.4196H336.957V51.5805H340.74V44.6073H348.628V51.5805H352.387V34.4196H348.628Z" fill="black"/>
<path d="M370.329 34.4196V41.1455H362.441V34.4196H358.658V51.5805H362.441V44.6073H370.329V51.5805H374.088V34.4196H370.329Z" fill="black"/>
<path d="M399.202 34.4196H395.418V51.5805H399.202V34.4196ZM380.359 51.5805H387.184C390.844 51.5805 393.49 49.5776 393.49 45.9179C393.49 42.3324 390.794 40.3295 387.159 40.3295H384.118V34.4196H380.359V51.5805ZM384.118 48.1681V43.643H387.036C388.643 43.643 389.632 44.5579 389.632 45.9179C389.632 47.2779 388.643 48.1681 387.036 48.1681H384.118Z" fill="black"/>
<path d="M408.333 34.4196H403.759L410.114 42.8764L403.511 51.5805H407.839L412.438 45.5964L417.062 51.5805H421.686L415.084 42.8764L421.414 34.4196H417.111L412.759 40.2553L408.333 34.4196Z" fill="black"/>
<path d="M432.216 37.9062H437.904V51.5805H441.662V37.9062H447.374V34.4196H432.216V37.9062Z" fill="black"/>
<path d="M452.048 51.5805H465.153V48.1186H455.831V44.5579H462.334V41.2197H455.831V37.8815H465.054V34.4196H452.048V51.5805Z" fill="black"/>
<path d="M473.26 34.4196H468.686L475.04 42.8764L468.438 51.5805H472.766L477.365 45.5964L481.989 51.5805H486.613L480.011 42.8764L486.341 34.4196H482.038L477.686 40.2553L473.26 34.4196Z" fill="black"/>
<path d="M502.582 34.4196V41.1455H494.694V34.4196H490.91V51.5805H494.694V44.6073H502.582V51.5805H506.34V34.4196H502.582Z" fill="black"/>
<path d="M520.475 48.2423C517.532 48.2423 515.282 45.9921 515.282 43C515.282 40.008 517.532 37.7578 520.475 37.7578C523.393 37.7578 525.643 40.0328 525.643 43C525.643 45.9673 523.393 48.2423 520.475 48.2423ZM511.4 43C511.4 48.0692 515.257 51.8278 520.475 51.8278C525.668 51.8278 529.525 48.0692 529.525 43C529.525 37.9309 525.668 34.1723 520.475 34.1723C515.257 34.1723 511.4 37.9309 511.4 43Z" fill="black"/>
<path d="M533.449 51.7041C537.356 51.7041 538.914 49.3303 538.914 45.7695V37.8815H544.898V51.5805H548.656V34.4196H535.304V45.5223C535.304 47.5252 534.537 48.2423 533.029 48.2423H532.064V51.7041H533.449Z" fill="black"/>
<path d="M562.791 48.2423C559.848 48.2423 557.598 45.9921 557.598 43C557.598 40.008 559.848 37.7578 562.791 37.7578C565.709 37.7578 567.959 40.0328 567.959 43C567.959 45.9673 565.709 48.2423 562.791 48.2423ZM553.716 43C553.716 48.0692 557.573 51.8278 562.791 51.8278C567.983 51.8278 571.841 48.0692 571.841 43C571.841 37.9309 567.983 34.1723 562.791 34.1723C557.573 34.1723 553.716 37.9309 553.716 43Z" fill="black"/>
<path d="M588.862 34.4196H576.918V51.5805H580.677V37.9062H588.862V34.4196Z" fill="black"/>
<path d="M597.234 34.4196H593.5V51.5805H597.259L605.295 40.0575V51.5805H609.029V34.4196H605.246L597.234 45.8684V34.4196Z" fill="black"/>
<path d="M619.008 34.4196H615.274V51.5805H619.033L627.069 40.0575V51.5805H630.803V34.4196H627.02L619.008 45.8684V34.4196ZM618.686 28.9301C618.686 31.5265 620.566 33.1091 622.989 33.1091C625.412 33.1091 627.267 31.5265 627.267 28.9301H624.522C624.522 29.8698 623.904 30.6858 622.989 30.6858C622.049 30.6858 621.481 29.8698 621.481 28.9301H618.686Z" fill="black"/>
<path d="M122.785 67.631H119.051V84.7919H122.809L130.846 73.2689V84.7919H134.58V67.631H130.796L122.785 79.0798V67.631Z" fill="black"/>
<path d="M155.267 75.5685H152.448V71.0434H155.267C156.8 71.0434 157.789 71.9583 157.789 73.2689C157.789 74.6042 156.8 75.5685 155.267 75.5685ZM148.665 84.7919H152.448V78.8573H155.415C158.927 78.8573 161.671 76.8791 161.671 73.2689C161.671 69.6339 158.976 67.631 155.415 67.631H148.665V84.7919Z" fill="black"/>
<path d="M174.124 81.4537C171.182 81.4537 168.931 79.2035 168.931 76.2115C168.931 73.2194 171.182 70.9692 174.124 70.9692C177.042 70.9692 179.292 73.2442 179.292 76.2115C179.292 79.1787 177.042 81.4537 174.124 81.4537ZM165.049 76.2115C165.049 81.2806 168.907 85.0392 174.124 85.0392C179.317 85.0392 183.175 81.2806 183.175 76.2115C183.175 71.1423 179.317 67.3838 174.124 67.3838C168.907 67.3838 165.049 71.1423 165.049 76.2115Z" fill="black"/>
<path d="M195.868 74.1838H192.011V71.1176H200.467V67.631H188.252V84.7919H195.868C199.577 84.7919 201.803 82.5911 201.803 79.426C201.803 76.0136 199.404 74.1838 195.868 74.1838ZM192.011 81.5526V77.1758H195.398C196.956 77.1758 197.945 77.9671 197.945 79.3271C197.945 80.6624 196.956 81.5526 195.398 81.5526H192.011Z" fill="black"/>
<path d="M214.484 81.4537C211.542 81.4537 209.291 79.2035 209.291 76.2115C209.291 73.2194 211.542 70.9692 214.484 70.9692C217.402 70.9692 219.652 73.2442 219.652 76.2115C219.652 79.1787 217.402 81.4537 214.484 81.4537ZM205.409 76.2115C205.409 81.2806 209.267 85.0392 214.484 85.0392C219.677 85.0392 223.534 81.2806 223.534 76.2115C223.534 71.1423 219.677 67.3838 214.484 67.3838C209.267 67.3838 205.409 71.1423 205.409 76.2115Z" fill="black"/>
<path d="M226.304 71.1176H231.992V84.7919H235.75V71.1176H241.462V67.631H226.304V71.1176Z" fill="black"/>
<path d="M253.299 81.4537C250.356 81.4537 248.106 79.2035 248.106 76.2115C248.106 73.2194 250.356 70.9692 253.299 70.9692C256.216 70.9692 258.467 73.2442 258.467 76.2115C258.467 79.1787 256.216 81.4537 253.299 81.4537ZM244.224 76.2115C244.224 81.2806 248.081 85.0392 253.299 85.0392C258.491 85.0392 262.349 81.2806 262.349 76.2115C262.349 71.1423 258.491 67.3838 253.299 67.3838C248.081 67.3838 244.224 71.1423 244.224 76.2115Z" fill="black"/>
<path d="M265.119 71.1176H270.806V84.7919H274.565V71.1176H280.277V67.631H265.119V71.1176Z" fill="black"/>
<path d="M284.95 84.7919H298.055V81.33H288.733V77.7693H295.236V74.4311H288.733V71.0929H297.957V67.631H284.95V84.7919Z" fill="black"/>
<path d="M306.162 67.631H301.588L307.943 76.0878L301.34 84.7919H305.668L310.267 78.8078L314.891 84.7919H319.515L312.913 76.0878L319.243 67.631H314.941L310.589 73.4667L306.162 67.631Z" fill="black"/>
<path d="M335.484 67.631V74.3569H327.596V67.631H323.813V84.7919H327.596V77.8187H335.484V84.7919H339.242V67.631H335.484Z" fill="black"/>
<path d="M349.248 67.631H345.514V84.7919H349.272L357.309 73.2689V84.7919H361.043V67.631H357.259L349.248 79.0798V67.631Z" fill="black"/>
<path d="M371.071 84.7919V67.631H367.287V84.7919H371.071ZM371.071 75.2471L378.093 84.7919H382.544L375.448 75.0987L381.456 67.631H377.277L371.071 75.2471Z" fill="black"/>
<path d="M390.356 67.631H386.622V84.7919H390.381L398.417 73.2689V84.7919H402.151V67.631H398.368L390.356 79.0798V67.631Z" fill="black"/>
<path d="M57.8188 33.4629L43.5508 28.27L29.2812 33.4629L29.2827 51.6148L43.5508 56.8076L57.8188 51.6148V33.4629Z" fill="black"/>
<path d="M86.0471 5.17723L86.05 5.17581L71.8329 0.0390625L57.6157 5.17581L43.3971 0.0390625L29.1755 5.17723L14.9613 0.0390625L0.744141 5.17581V23.1313L14.9613 28.2698L29.1799 23.1313L43.3971 28.2698L57.6157 23.1313L71.8329 28.2698L86.05 23.1313V5.17581L86.0471 5.17723Z" fill="#3B7698"/>
<path d="M29.2817 5.10134L15.0137 10.1653L0.744141 5.10134L15.0137 0.0390625L29.2817 5.10134Z" fill="black"/>
<path d="M57.8188 5.10134L43.5508 10.1653L29.2812 5.10134L43.5508 0.0390625L57.8188 5.10134Z" fill="black"/>
<path d="M86.053 5.10134L71.9369 10.1653L57.8223 5.10134L71.9369 0.0390625L86.053 5.10134Z" fill="black"/>
<path d="M57.8159 33.4871L43.5486 38.6732L29.2812 33.4854V51.6188L43.55 56.8064L57.8188 51.6188L57.8159 33.4871Z" fill="#3B7698"/>
<path d="M57.8188 61.9449L43.5508 56.8076L29.2812 61.9449L29.2827 79.9011L43.5508 85.0383L57.8188 79.9011V61.9449Z" fill="black"/>
<path d="M57.8159 62.0249L43.5486 67.1428L29.2812 62.0234V79.918L43.55 85.0376L57.8188 79.918L57.8159 62.0249Z" fill="#3B7698"/>
<path fill-rule="evenodd" clip-rule="evenodd" d="M80.4487 39.2064L75.7988 38.1269L71.2186 37.0635L70.5568 36.9098C70.0391 36.9234 69.5202 37.2483 69.0296 37.8843L66.0099 41.8255C65.5458 42.4245 65.5458 42.6502 66.0099 43.2478L69.0296 47.1888C69.5202 47.8249 70.0391 48.1497 70.5568 48.1633L71.2184 48.0097L75.7989 46.9465L80.4433 45.8685C80.6244 45.7874 80.807 45.7451 80.9899 45.7416C81.5271 45.7314 82.0667 46.0559 82.5751 46.7152L86.053 51.605L71.9369 56.8076L57.8223 51.605V33.4564L71.9369 28.27L86.053 33.4564L82.5751 38.3624C82.0675 39.0204 81.5278 39.3438 80.9899 39.3321C80.8089 39.3282 80.6281 39.2863 80.4487 39.2064Z" fill="black"/>
<path fill-rule="evenodd" clip-rule="evenodd" d="M80.4487 67.4379L75.7988 66.3583L71.2186 65.2949L70.5568 65.1413C70.0391 65.1549 69.5202 65.4797 69.0296 66.1158L66.0099 70.0569C65.5458 70.6559 65.5458 70.8816 66.0099 71.4792L69.0296 75.4203C69.5202 76.0563 70.0391 76.3812 70.5568 76.3948L71.2184 76.2412L75.7989 75.178L80.4433 74.0999C80.6244 74.0188 80.807 73.9765 80.9899 73.9731C81.5271 73.9628 82.0667 74.2874 82.575 74.9466L86.053 79.8365L71.9369 85.039L57.8223 79.8365V61.6878L71.9369 56.5015L86.053 61.6878L82.575 66.5939C82.0675 67.2518 81.5278 67.5752 80.9899 67.5635C80.8089 67.5596 80.628 67.5177 80.4487 67.4379Z" fill="black"/>
<path fill-rule="evenodd" clip-rule="evenodd" d="M6.65481 39.2064L11.3048 38.1269L15.885 37.0635L16.5467 36.9098C17.0644 36.9234 17.5833 37.2483 18.0739 37.8843L21.0936 41.8255C21.5577 42.4245 21.5577 42.6502 21.0936 43.2478L18.0739 47.1888C17.5833 47.8249 17.0644 48.1497 16.5467 48.1633L15.8851 48.0097L11.3046 46.9465L6.66018 45.8685C6.47916 45.7874 6.29654 45.7451 6.11364 45.7416C5.57644 45.7314 5.03683 46.0559 4.52847 46.7152L1.05052 51.605L15.1666 56.8076L29.2812 51.605V33.4564L15.1666 28.27L1.05052 33.4564L4.52847 38.3624C5.03604 39.0204 5.57569 39.3438 6.11364 39.3321C6.29465 39.3282 6.47547 39.2863 6.65481 39.2064Z" fill="black"/>
<path fill-rule="evenodd" clip-rule="evenodd" d="M6.65481 67.4379L11.3048 66.3583L15.885 65.2949L16.5467 65.1413C17.0644 65.1549 17.5833 65.4797 18.0739 66.1158L21.0936 70.0569C21.5577 70.6559 21.5577 70.8816 21.0936 71.4792L18.0739 75.4203C17.5833 76.0563 17.0644 76.3812 16.5467 76.3948L15.8851 76.2412L11.3046 75.178L6.66018 74.0999C6.47916 74.0188 6.29654 73.9765 6.11364 73.9731C5.57644 73.9628 5.03683 74.2874 4.52847 74.9466L1.05052 79.8365L15.1666 85.039L29.2812 79.8365V61.6878L15.1666 56.5015L1.05052 61.6878L4.52847 66.5939C5.03604 67.2518 5.57569 67.5752 6.11364 67.5635C6.29465 67.5596 6.47547 67.5177 6.65481 67.4379Z" fill="black"/>
</svg>
